# xmcd CD database file
#
# Track frame offsets:
#	150
#	17064
#	40387
#	62111
#	87173
#	104359
#	125815
#	142457
#	165243
#	185201
#	209182
#	241651
#	259962
#	293685
#	305448
#
# Disc length: 4678 seconds
#
# Revision: 0
# Processed by: cddbd v1.5.2PL0 Copyright (c) Steve Scherf et al.
# Submitted via: CDex 1.51
#
DISCID=e812440f
DTITLE=Diversos - The Collection New Age - Volume II
DYEAR=1900
DGENRE=New Age
TTITLE0=Ameno - Era
TTITLE1=Imagine - Gregorian
TTITLE2=Hymme - Era
TTITLE3=The Voices of Solaris - Solaris
TTITLE4=Divano - Era
TTITLE5=Fundamentum - Lesliem
TTITLE6=The Mass - Era
TTITLE7=Heaven Can Want - Gregorian
TTITLE8=I Wanna Fly - Mionjes Budistas
TTITLE9=Everybody Gotta Lear - Gregorian
TTITLE10=Journey to a Fantasy - Kitaro
TTITLE11=Mother - Era
TTITLE12=The Light The Spirit - Kitaro
TTITLE13=One Man's Dream - Yanni
TTITLE14=Chuva - Corciolli
EXTD=
EXTT0=
EXTT1=
EXTT2=
EXTT3=
EXTT4=
EXTT5=
EXTT6=
EXTT7=
EXTT8=
EXTT9=
EXTT10=
EXTT11=
EXTT12=
EXTT13=
EXTT14=
PLAYORDER=
